<svg width="145" height="80" viewBox="0 0 145 80" fill="none" xmlns="http://www.w3.org/2000/svg">
<path d="M105 0C127.091 4.12327e-06 145 17.9086 145 40C145 62.0914 127.091 80 105 80H40C17.9086 80 0 62.0914 0 40C0 17.9086 17.9086 0 40 0H105ZM105 10C88.4315 10 75 23.4315 75 40C75 56.5685 88.4315 70 105 70C121.569 70 135 56.5685 135 40C135 23.4315 121.569 10 105 10ZM37.2656 25.1875C36.9289 24.2774 35.6415 24.2775 35.3047 25.1875L32.9219 31.625C31.6513 35.0583 28.9441 37.7656 25.5107 39.0361L19.0732 41.418C18.1633 41.7548 18.1632 43.0422 19.0732 43.3789L25.5107 45.7617C28.9442 47.0323 31.6514 49.7394 32.9219 53.1729L35.3047 59.6104C35.6416 60.52 36.9287 60.5201 37.2656 59.6104L39.6475 53.1729C40.918 49.7394 43.6252 47.0323 47.0586 45.7617L53.4961 43.3789C54.406 43.0421 54.406 41.7548 53.4961 41.418L47.0586 39.0361C43.6252 37.7657 40.918 35.0584 39.6475 31.625L37.2656 25.1875ZM53.0068 17.4658C52.8361 17.0046 52.1835 17.0047 52.0127 17.4658L50.8047 20.7295C50.1606 22.4695 48.7889 23.8424 47.0488 24.4863L43.7852 25.6934C43.324 25.8641 43.3239 26.5168 43.7852 26.6875L47.0488 27.8945C48.789 28.5385 50.1607 29.9112 50.8047 31.6514L52.0127 34.915C52.1836 35.3758 52.836 35.3759 53.0068 34.915L54.2139 31.6514C54.8579 29.9111 56.2304 28.5385 57.9707 27.8945L61.2344 26.6875C61.6953 26.5167 61.6952 25.8642 61.2344 25.6934L57.9707 24.4863C56.2304 23.8424 54.8579 22.4697 54.2139 20.7295L53.0068 17.4658Z" fill="#FF4001"/>
</svg>
