<svg width="20" height="20" viewBox="0 0 20 20" fill="none" xmlns="http://www.w3.org/2000/svg">
<g clip-path="url(#clip0_1182_328)">
<path d="M8.43447 5.06276C8.54673 4.7594 8.97652 4.7594 9.08877 5.06276L9.88272 7.20826C10.3062 8.35256 11.2081 9.25546 12.3524 9.67897L14.4989 10.4729C14.802 10.5853 14.802 11.0139 14.4989 11.1262L12.3524 11.9202C11.2081 12.3437 10.3062 13.2466 9.88272 14.3909L9.08877 16.5374C8.97632 16.8401 8.54697 16.84 8.43447 16.5374L7.64053 14.3909C7.21702 13.2465 6.31424 12.3437 5.16982 11.9202L3.02432 11.1262C2.72104 11.014 2.72108 10.5852 3.02432 10.4729L5.16982 9.67897C6.31423 9.2555 7.21698 8.35263 7.64053 7.20826L8.43447 5.06276ZM14.0038 2.48854C14.0608 2.33491 14.2789 2.33489 14.3358 2.48854L14.7382 3.57643C14.9529 4.15639 15.4102 4.61372 15.9901 4.82838L17.078 5.2317C17.2315 5.28877 17.2317 5.50588 17.078 5.56276L15.9901 5.9651C15.4102 6.17975 14.9529 6.6371 14.7382 7.21705L14.3358 8.30494C14.2788 8.45835 14.0608 8.45835 14.0038 8.30494L13.6015 7.21705C13.3868 6.63711 12.9295 6.17976 12.3495 5.9651L11.2616 5.56276C11.1079 5.50589 11.1081 5.28875 11.2616 5.2317L12.3495 4.82838C12.9295 4.61371 13.3868 4.15636 13.6015 3.57643L14.0038 2.48854Z" fill="#FF4001"/>
</g>
<defs>
<clipPath id="clip0_1182_328">
<rect width="14.4444" height="14.4444" fill="white" transform="translate(2.77979 2.33333)"/>
</clipPath>
</defs>
</svg>
