<svg width="22" height="18" viewBox="0 0 22 18" fill="none" xmlns="http://www.w3.org/2000/svg">
<path fill-rule="evenodd" clip-rule="evenodd" d="M1.48757 7.76343C7.31847 5.23115 11.2002 3.54852 13.1494 2.7322C18.6971 0.416493 19.8632 0.0166597 20.6129 0C20.7795 0 21.146 0.0333197 21.3959 0.233236C21.5959 0.399834 21.6458 0.616411 21.6792 0.783008C21.7125 0.949605 21.7458 1.29946 21.7125 1.56601C21.4126 4.73136 20.1131 12.4115 19.4468 15.9434C19.1635 17.4427 18.6138 17.9425 18.0807 17.9925C16.9145 18.0925 16.0315 17.2262 14.9153 16.4931C13.1494 15.3436 12.1665 14.6272 10.4505 13.4944C8.46799 12.1949 9.75079 11.4786 10.8837 10.3124C11.1835 10.0125 16.2981 5.34777 16.398 4.93128C16.4147 4.8813 16.4147 4.68138 16.2981 4.58142C16.1814 4.48147 16.0148 4.51479 15.8816 4.54811C15.6983 4.58142 12.8995 6.44731 7.45175 10.1291C6.65208 10.6789 5.93572 10.9454 5.28599 10.9288C4.56962 10.9121 3.20352 10.5289 2.17062 10.1958C0.921139 9.79592 -0.0784445 9.57934 0.00485417 8.87963C0.0548333 8.51312 0.554625 8.14661 1.48757 7.76343Z" fill="white"/>
</svg>
