<svg width="40" height="40" viewBox="0 0 40 40" fill="none" xmlns="http://www.w3.org/2000/svg">
<g clip-path="url(#clip0_35_18803)">
<path fill-rule="evenodd" clip-rule="evenodd" d="M9.04616 19.7918C14.8771 17.2595 18.7588 15.5769 20.708 14.7605C26.2557 12.4448 27.4218 12.045 28.1715 12.0284C28.3381 12.0284 28.7046 12.0617 28.9545 12.2616C29.1545 12.4282 29.2044 12.6448 29.2377 12.8114C29.2711 12.978 29.3044 13.3278 29.2711 13.5944C28.9712 16.7597 27.6717 24.4398 27.0053 27.9717C26.7221 29.4711 26.1724 29.9709 25.6392 30.0209C24.4731 30.1208 23.5901 29.2545 22.4739 28.5215C20.708 27.372 19.725 26.6556 18.0091 25.5227C16.0266 24.2233 17.3094 23.5069 18.4422 22.3407C18.7421 22.0408 23.8567 17.3761 23.9566 16.9596C23.9733 16.9097 23.9733 16.7097 23.8567 16.6098C23.74 16.5098 23.5734 16.5431 23.4402 16.5765C23.2569 16.6098 20.4581 18.4757 15.0103 22.1575C14.2107 22.7072 13.4943 22.9738 12.8446 22.9571C12.1282 22.9405 10.7621 22.5573 9.72921 22.2241C8.47973 21.8243 7.48015 21.6077 7.56345 20.908C7.61343 20.5415 8.11322 20.175 9.04616 19.7918Z" fill="white"/>
</g>
<defs>
<clipPath id="clip0_35_18803">
<rect width="40" height="40" fill="white"/>
</clipPath>
</defs>
</svg>
